<svg width="30" height="30" viewBox="0 0 50 50" fill="none" xmlns="http://www.w3.org/2000/svg">
<g clip-path="url(#clip0)">
<path d="M49.6021 45.0958L36.675 32.1687C39.1062 28.825 40.5437 24.7125 40.5437 20.2708C40.5437 9.09375 31.45 0 20.2708 0C9.09375 0 0 9.09375 0 20.2708C0 31.45 9.09375 40.5417 20.2708 40.5417C24.5083 40.5417 28.4437 39.2354 31.7021 37.0042L44.6979 50L49.6021 45.0958V45.0958ZM5.94583 20.2708C5.94583 12.3708 12.3729 5.94375 20.2729 5.94375C28.1729 5.94375 34.6 12.3708 34.6 20.2708C34.6 28.1708 28.1729 34.5979 20.2729 34.5979C12.3708 34.5979 5.94583 28.1708 5.94583 20.2708V20.2708Z" fill="#242424"/>
</g>
<defs>
<clipPath id="clip0">
<rect width="50" height="50" fill="white"/>
</clipPath>
</defs>
</svg>
